<?xml version="1.0" standalone="no"?>
<svg fill="#1993e7" xmlns:xlink="http://www.w3.org/1999/xlink" id="wave" style="transform:rotate(180deg); transition: 0.3s" viewBox="0 0 1440 100" version="1.1" xmlns="http://www.w3.org/2000/svg"><defs><linearGradient id="sw-gradient-0" x1="0" x2="0" y1="1" y2="0"><stop stop-color="rgba(247, 116, 38, 1)" offset="0%"/><stop stop-color="rgba(247, 116, 38, 1)" offset="100%"/></linearGradient></defs><path style="transform:translate(0, 0px); opacity:1" fill="#1993e7" d="M0,50L80,50C160,50,320,50,480,41.7C640,33,800,17,960,13.3C1120,10,1280,20,1440,33.3C1600,47,1760,63,1920,68.3C2080,73,2240,67,2400,66.7C2560,67,2720,73,2880,63.3C3040,53,3200,27,3360,21.7C3520,17,3680,33,3840,38.3C4000,43,4160,37,4320,33.3C4480,30,4640,30,4800,30C4960,30,5120,30,5280,33.3C5440,37,5600,43,5760,43.3C5920,43,6080,37,6240,41.7C6400,47,6560,63,6720,71.7C6880,80,7040,80,7200,78.3C7360,77,7520,73,7680,68.3C7840,63,8000,57,8160,60C8320,63,8480,77,8640,78.3C8800,80,8960,70,9120,63.3C9280,57,9440,53,9600,53.3C9760,53,9920,57,10080,56.7C10240,57,10400,53,10560,58.3C10720,63,10880,77,11040,76.7C11200,77,11360,63,11440,56.7L11520,50L11520,100L11440,100C11360,100,11200,100,11040,100C10880,100,10720,100,10560,100C10400,100,10240,100,10080,100C9920,100,9760,100,9600,100C9440,100,9280,100,9120,100C8960,100,8800,100,8640,100C8480,100,8320,100,8160,100C8000,100,7840,100,7680,100C7520,100,7360,100,7200,100C7040,100,6880,100,6720,100C6560,100,6400,100,6240,100C6080,100,5920,100,5760,100C5600,100,5440,100,5280,100C5120,100,4960,100,4800,100C4640,100,4480,100,4320,100C4160,100,4000,100,3840,100C3680,100,3520,100,3360,100C3200,100,3040,100,2880,100C2720,100,2560,100,2400,100C2240,100,2080,100,1920,100C1760,100,1600,100,1440,100C1280,100,1120,100,960,100C800,100,640,100,480,100C320,100,160,100,80,100L0,100Z"/></svg>